Coordinates
version=1
nRows=8
nColumns=33
inDegrees=yes

Units are S.I. units (second, meters, Newtons, ...)
Angles are in degrees.

endheader
time	ground_thorax_rot_x	ground_thorax_rot_y	ground_thorax_rot_z	ground_thorax_tx	ground_thorax_ty	ground_thorax_tz	clav_prot_r	clav_elev_r	scapula_abduction_r	scapula_elevation_r	scapula_upward_rot_r	scapula_winging_r	shoulder_elv_r	plane_of_elev_r	axial_rot_r	elbow_flexion_r	pro_sup_r	wrist_flex_r	wrist_dev_r	clav_prot_l	clav_elev_l	scapula_abduction_l	scapula_elevation_l	scapula_upward_rot_l	scapula_winging_l	shoulder_elv_l	plane_of_elev_l	axial_rot_l	elbow_flexion_l	pro_sup_l	wrist_flex_l	wrist_dev_l
      3.05000000	    -37.07638092	     -5.56493905	     10.59924367	     20.99678048	    788.54096988	    -42.87837756	     18.29591323	    -45.00000000	     43.69004016	    -45.00000000	    -16.76770138	  -3329.12175098	   -650.72035377	     21.15350261	    179.99999979	   2163.35239656	   -174.70571227	     12.17611885	     12.77750382	     11.82893023	     26.62913710	    -36.64947567	    -45.00000000	    -45.00000000	  -2092.07462365	  -3142.90026471	     20.05881315	   -179.99999979	   1435.28949238	    143.68998420	     10.35044345	    -11.59932141
      3.06000000	    -37.09947199	     -6.05293446	     11.10121442	     18.58204293	    790.33148143	    -42.98006672	     18.44925698	    -45.00000000	     43.21160470	    -45.00000000	    -17.85441344	  -3329.21349407	   -650.53580092	     21.33865693	    179.99999979	   2163.24831613	   -175.14626422	     12.24646433	     12.91671346	     11.40331991	     26.75498353	    -36.31791808	    -45.00000000	    -45.00000000	  -2091.67440867	  -3142.87716236	     20.07859739	   -179.99999979	   1435.33818612	    143.64196808	     10.46009355	    -11.63657395
      3.07000000	    -37.05554391	     -6.64092051	     11.68752653	     16.06594217	    792.24868239	    -43.07214891	     18.69095843	    -45.00000000	     42.77586655	    -45.00000000	    -19.07162549	  -3329.32551182	   -650.24279207	     21.57932843	    179.99999979	   2163.14721007	   -175.64930626	     12.29120712	     13.09573599	     10.97431274	     26.94134113	    -35.96829053	    -45.00000000	    -45.00000000	  -2091.29040508	  -3142.95522887	     20.03462935	   -179.99999979	   1435.41954448	    143.75339609	     10.53777818	    -11.67908900
      3.08000000	    -36.34030868	    -11.67460791	     17.38324834	     13.44428703	    794.30013282	    -43.16063836	     20.70249529	    -45.00000000	     39.62270354	    -45.00000000	    -29.19560605	  -3328.36069187	   -649.19850327	     22.26402056	    179.99999979	   2162.92632578	   -177.72279771	     12.18035982	     13.34686285	      8.08184578	     26.77316062	    -33.00284956	    -45.00000000	    -45.00000000	  -2090.71248299	  -3143.64040437	     19.43799653	   -179.99999979	   1436.29314401	    147.26206103	     11.42244191	    -11.30029073
      3.09000000	    -36.64151413	    -10.28880250	     15.83019800	     10.73654970	    796.47403710	    -43.24231455	     20.08070586	    -45.00000000	     40.29363377	    -45.00000000	    -26.41066637	  -3329.06426828	   -649.33237368	     22.22564033	    179.99999979	   2162.94605088	   -177.66063814	     12.28582719	     13.43015215	      8.78994304	     27.08092423	    -33.86261213	    -45.00000000	    -45.00000000	  -2090.30430280	  -3143.27120153	     19.73915606	   -179.99999979	   1435.99695960	    149.16418477	     11.08343422	    -12.08598609
      3.10000000	    -36.80057747	     -9.68452637	     15.00098413	      7.95038901	    798.75920784	    -43.31140821	     19.80070952	    -45.00000000	     40.65913840	    -45.00000000	    -25.17664932	  -3329.49778105	   -649.27484505	     22.28375834	    179.99999979	   2162.87141721	   -177.82111312	     12.38157414	     13.56007649	      8.96767810	     27.26724991	    -34.23543953	    -45.00000000	    -45.00000000	  -2089.91712438	  -3143.04387194	     19.81277253	   -179.99999979	   1435.82600023	    149.92557062	     10.91270929	    -12.52318412
      3.11000000	    -36.89644118	     -9.38998705	     14.55803525	      5.11975834	    801.13256230	    -43.35689196	     19.65985574	    -45.00000000	     40.81207807	    -45.00000000	    -24.54341667	  -3329.90312306	   -649.13208453	     22.36603355	    179.99999979	   2162.78520391	   -178.13453574	     12.48007994	     13.67434986	      8.96612994	     27.44429035	    -34.41199970	    -45.00000000	    -45.00000000	  -2089.51101826	  -3142.87388922	     19.85889859	   -179.99999979	   1435.70596034	    150.15766459	     10.84890267	    -12.79100426
      3.12000000	    -36.99757667	     -9.09522000	     14.12441870	      2.24944630	    803.59089228	    -43.37847450	     19.46794125	    -45.00000000	     40.90293163	    -45.00000000	    -23.96142374	  -3330.21695569	   -648.99553324	     22.43262673	    179.99999979	   2162.76102128	   -178.50034379	     12.58327381	     13.76288921	      8.87209975	     27.52684827	    -34.58442442	    -45.00000000	    -45.00000000	  -2089.11305507	  -3142.76495137	     19.95755894	   -179.99999979	   1435.68680199	    150.13647248	     10.82081346	    -12.98818956
